<svg width="20" height="20" viewBox="0 0 20 20" fill="none" xmlns="http://www.w3.org/2000/svg">
<path d="M1.17407 8.30177L2.60708 8.91946V12.2775C2.48508 12.3201 2.37459 12.3894 2.28396 12.48C2.19333 12.5706 2.12495 12.6802 2.08398 12.8006C2.04302 12.9209 2.03054 13.0487 2.04751 13.1745C2.06447 13.3002 2.11043 13.4205 2.18191 13.5263L2.08644 14.0255C1.99058 14.5265 1.89617 15.0212 1.80321 15.5094C1.79079 15.5747 1.80196 15.6422 1.83481 15.7004C1.86766 15.7585 1.92015 15.8037 1.98328 15.8281C2.57184 16.0573 3.22765 16.0573 3.81621 15.8281C3.87929 15.8036 3.93173 15.7585 3.96454 15.7003C3.99736 15.6422 4.00852 15.5747 3.99611 15.5094C3.90349 15.0212 3.80908 14.5265 3.71289 14.0255L3.61759 13.5263C3.68915 13.4205 3.73519 13.3001 3.75219 13.1743C3.7692 13.0484 3.75674 12.9205 3.71575 12.8001C3.67477 12.6797 3.60633 12.57 3.51563 12.4793C3.42493 12.3886 3.31435 12.3193 3.19225 12.2767V9.17174L4.4365 9.70789V13.5304C4.4365 14.0392 4.75701 14.7496 6.28414 15.245C7.26908 15.5644 8.58873 15.7402 10 15.7402C12.7692 15.7402 15.5635 15.057 15.5635 13.5301V9.70789L18.8259 8.30177C18.8777 8.2793 18.9218 8.24259 18.9527 8.19609C18.9836 8.14959 19 8.09531 19 8.03983C19 7.98436 18.9836 7.93008 18.9527 7.88358C18.9218 7.83708 18.8777 7.80037 18.8259 7.77789L10.1179 4.02431C10.0807 4.00828 10.0406 4 10 4C9.95941 4 9.91927 4.00828 9.88213 4.02431L1.17407 7.7774C1.12227 7.79988 1.07825 7.83659 1.04735 7.88309C1.01645 7.92959 1 7.98387 1 8.03934C1 8.09482 1.01645 8.1491 1.04735 8.1956C1.07825 8.2421 1.12227 8.27881 1.17407 8.30128V8.30177ZM3.17403 13.0658C3.17399 13.1189 3.15787 13.1708 3.12771 13.215C3.09754 13.2592 3.05468 13.2936 3.00454 13.3139C2.95441 13.3342 2.89925 13.3395 2.84604 13.3291C2.79283 13.3187 2.74395 13.2931 2.7056 13.2555C2.66725 13.218 2.64113 13.1701 2.63056 13.118C2.61999 13.0659 2.62543 13.0119 2.6462 12.9628C2.66697 12.9137 2.70214 12.8718 2.74725 12.8422C2.79237 12.8127 2.84541 12.797 2.89966 12.797C2.9724 12.7971 3.04214 12.8254 3.09357 12.8758C3.145 12.9261 3.17394 12.9944 3.17403 13.0656V13.0658ZM2.42617 15.3677C2.5042 14.96 2.58289 14.5477 2.66225 14.1309L2.7094 13.8853C2.83489 13.9154 2.96595 13.9154 3.09143 13.8853L3.13858 14.1309C3.21817 14.5477 3.29686 14.96 3.37466 15.3677C3.06361 15.4465 2.73722 15.4465 2.42617 15.3677ZM14.9783 9.96018V13.5304C14.9783 14.4636 12.8383 15.1675 10 15.1675C7.16174 15.1675 5.02167 14.4636 5.02167 13.5304V9.96018L9.88297 12.055C9.92011 12.0711 9.96025 12.0793 10.0008 12.0793C10.0414 12.0793 10.0816 12.0711 10.1187 12.055L14.9783 9.96018ZM10 4.59959L17.9818 8.03967L10 11.4797L4.03674 8.90947L10.0289 8.32453C10.0678 8.32159 10.1056 8.31109 10.1403 8.29363C10.1749 8.27618 10.2057 8.25212 10.2307 8.22287C10.2557 8.19363 10.2745 8.15978 10.286 8.12332C10.2975 8.08686 10.3014 8.04852 10.2976 8.01055C10.2937 7.97258 10.2822 7.93575 10.2636 7.90222C10.245 7.86868 10.2197 7.83912 10.1893 7.81527C10.1589 7.79142 10.1239 7.77375 10.0865 7.76332C10.049 7.75288 10.0098 7.74987 9.97108 7.75448L2.94731 8.43995L2.01822 8.03967L10 4.59959Z" fill="#2F80ED"/>
</svg>
