<svg width="20" height="20" viewBox="0 0 20 20" fill="none" xmlns="http://www.w3.org/2000/svg">
<path d="M16.6326 13.8005L13.799 11.9107C13.4394 11.6728 12.9574 11.751 12.6915 12.0906L11.8661 13.1519C11.76 13.2918 11.5672 13.3324 11.4137 13.2471L11.2567 13.1605C10.7362 12.8768 10.0886 12.5236 8.78376 11.2182C7.47892 9.91279 7.12501 9.26463 6.8413 8.74505L6.75521 8.58803C6.66879 8.43459 6.7086 8.24093 6.84852 8.134L7.90908 7.30877C8.24842 7.04287 8.32681 6.56095 8.0892 6.20122L6.19948 3.36736C5.95596 3.00104 5.4674 2.89107 5.09041 3.11771L3.90548 3.82955C3.53317 4.04844 3.26002 4.40296 3.14331 4.81879C2.71662 6.3736 3.03761 9.05697 6.99017 13.0103C10.1343 16.1544 12.475 17 14.0839 17C14.4541 17.0015 14.8229 16.9534 15.1804 16.8567C15.5963 16.7401 15.9508 16.4669 16.1696 16.0945L16.8821 14.9102C17.109 14.5331 16.9991 14.0442 16.6326 13.8005ZM16.4801 14.6708L15.7692 15.8558C15.6121 16.1246 15.3571 16.3223 15.0576 16.4074C13.6224 16.8014 11.1149 16.475 7.32027 12.6801C3.52565 8.88526 3.1993 6.37782 3.59334 4.94224C3.67854 4.64236 3.87642 4.38702 4.14555 4.22969L5.33048 3.51878C5.49406 3.42035 5.7061 3.46806 5.81177 3.62703L6.83829 5.1683L7.69988 6.46063C7.80306 6.61667 7.76916 6.82581 7.62196 6.94127L6.56115 7.7665C6.23832 8.01336 6.14614 8.46005 6.34489 8.81456L6.42913 8.96762C6.7273 9.5145 7.09799 10.1948 8.45136 11.5481C9.80473 12.9013 10.4848 13.2721 11.0314 13.5702L11.1847 13.6547C11.5391 13.8534 11.9858 13.7613 12.2327 13.4384L13.0578 12.3775C13.1733 12.2304 13.3824 12.1965 13.5384 12.2996L16.3718 14.1895C16.5309 14.2951 16.5786 14.5072 16.4801 14.6708Z" fill="#2F80ED"/>
</svg>
