<svg width="40" height="40" viewBox="0 0 40 40" fill="none" xmlns="http://www.w3.org/2000/svg">
<rect width="40" height="40" rx="2" fill="#9E9A9A" fill-opacity="0.3"/>
<rect x="0.5" y="0.5" width="39" height="39" rx="1.5" stroke="#F4F4F4" stroke-opacity="0.9"/>
<mask id="path-3-inside-1" fill="white">
<path fill-rule="evenodd" clip-rule="evenodd" d="M16.9232 13.5974L24.5249 20.3847L16.9232 27.1719V30.0001L27.6924 20.3847L16.9232 10.7693V13.5974Z"/>
</mask>
<path fill-rule="evenodd" clip-rule="evenodd" d="M16.9232 13.5974L24.5249 20.3847L16.9232 27.1719V30.0001L27.6924 20.3847L16.9232 10.7693V13.5974Z" fill="white"/>
<path d="M24.5249 20.3847L25.1909 19.6387L26.0264 20.3847L25.1909 21.1306L24.5249 20.3847ZM16.9232 13.5974L16.2571 14.3433L15.9232 14.0451V13.5974H16.9232ZM16.9232 27.1719H15.9232V26.7242L16.2571 26.426L16.9232 27.1719ZM16.9232 30.0001L17.5892 30.746L15.9232 32.2335V30.0001H16.9232ZM27.6924 20.3847L28.3584 19.6387L29.1938 20.3847L28.3584 21.1306L27.6924 20.3847ZM16.9232 10.7693H15.9232V8.53584L17.5892 10.0233L16.9232 10.7693ZM23.8589 21.1306L16.2571 14.3433L17.5892 12.8515L25.1909 19.6387L23.8589 21.1306ZM16.2571 26.426L23.8589 19.6387L25.1909 21.1306L17.5892 27.9179L16.2571 26.426ZM17.9232 27.1719V30.0001H15.9232V27.1719H17.9232ZM16.2571 29.2541L27.0264 19.6387L28.3584 21.1306L17.5892 30.746L16.2571 29.2541ZM27.0264 21.1306L16.2571 11.5152L17.5892 10.0233L28.3584 19.6387L27.0264 21.1306ZM17.9232 10.7693V13.5974H15.9232V10.7693H17.9232Z" fill="#F4F4F4" fill-opacity="0.9" mask="url(#path-3-inside-1)"/>
</svg>
