<svg width="40" height="40" viewBox="0 0 40 40" fill="none" xmlns="http://www.w3.org/2000/svg">
<rect width="40" height="40" rx="2" transform="matrix(-1 0 0 1 40 0)" fill="#9E9A9A" fill-opacity="0.3"/>
<rect x="-0.5" y="0.5" width="39" height="39" rx="1.5" transform="matrix(-1 0 0 1 39 0)" stroke="#F4F4F4" stroke-opacity="0.9"/>
<mask id="path-3-inside-1" fill="white">
<path fill-rule="evenodd" clip-rule="evenodd" d="M23.0768 13.5974L15.4751 20.3847L23.0768 27.172V30.0001L12.3076 20.3847L23.0768 10.7693V13.5974Z"/>
</mask>
<path fill-rule="evenodd" clip-rule="evenodd" d="M23.0768 13.5974L15.4751 20.3847L23.0768 27.172V30.0001L12.3076 20.3847L23.0768 10.7693V13.5974Z" fill="white"/>
<path d="M15.4751 20.3847L14.809 19.6387L13.9736 20.3847L14.809 21.1306L15.4751 20.3847ZM23.0768 13.5974L23.7429 14.3433L24.0768 14.0451V13.5974H23.0768ZM23.0768 27.172H24.0768V26.7242L23.7429 26.426L23.0768 27.172ZM23.0768 30.0001L22.4108 30.746L24.0768 32.2335V30.0001H23.0768ZM12.3076 20.3847L11.6416 19.6387L10.8062 20.3847L11.6416 21.1306L12.3076 20.3847ZM23.0768 10.7693H24.0768V8.53584L22.4108 10.0233L23.0768 10.7693ZM16.1411 21.1306L23.7429 14.3433L22.4108 12.8514L14.809 19.6387L16.1411 21.1306ZM23.7429 26.426L16.1411 19.6387L14.809 21.1306L22.4108 27.9179L23.7429 26.426ZM22.0768 27.172V30.0001H24.0768V27.172H22.0768ZM23.7429 29.2541L12.9736 19.6387L11.6416 21.1306L22.4108 30.746L23.7429 29.2541ZM12.9736 21.1306L23.7429 11.5152L22.4108 10.0233L11.6416 19.6387L12.9736 21.1306ZM22.0768 10.7693V13.5974H24.0768V10.7693H22.0768Z" fill="#F4F4F4" fill-opacity="0.9" mask="url(#path-3-inside-1)"/>
</svg>
