<svg width="20" height="20" viewBox="0 0 20 20" fill="none" xmlns="http://www.w3.org/2000/svg">
<path d="M17.8806 11.3874C17.8477 11.3314 17.7973 11.2878 17.7371 11.2634L16.667 10.8254L17.7754 10.1727C17.9155 10.0907 17.9626 9.91062 17.8806 9.7705C17.8477 9.71445 17.7973 9.67083 17.7371 9.64647L16.667 9.20843L17.7754 8.55577C17.8721 8.49752 17.927 8.38897 17.9165 8.27648C17.908 8.16539 17.8374 8.06859 17.7342 8.02659L13.5213 6.30088L11.4458 5.41891C11.4121 5.40557 11.3762 5.39862 11.3399 5.39833L7.95906 4.02246C7.87605 3.98799 7.78182 3.99343 7.70329 4.03716L3.17292 6.58311C3.02791 6.65612 2.96955 6.83289 3.04257 6.9779C3.07587 7.04404 3.13294 7.0952 3.20232 7.1211L4.29596 7.57385L3.17292 8.20004C3.03162 8.28001 2.9819 8.45942 3.06187 8.60071C3.09365 8.65687 3.14297 8.70096 3.20232 8.72628L4.29596 9.17903L3.1788 9.80522C3.02942 9.86887 2.95996 10.0416 3.02361 10.1909C3.0568 10.2688 3.12191 10.3286 3.20232 10.355L4.29596 10.8048L3.1788 11.431C3.0375 11.5109 2.98778 11.6904 3.06775 11.8317C3.09953 11.8878 3.14885 11.9319 3.2082 11.9572L7.00948 13.5712C7.02337 13.5813 7.03814 13.5902 7.05357 13.5977L9.13208 14.4796L12.9539 16.1054C13.0399 16.1419 13.1382 16.1354 13.2185 16.0878L17.7754 13.4066C17.9155 13.3246 17.9626 13.1445 17.8806 13.0044C17.8477 12.9483 17.7973 12.9047 17.7371 12.8803L16.667 12.4423L17.7754 11.7896C17.9155 11.7077 17.9625 11.5276 17.8806 11.3874ZM16.9639 9.96107L13.0451 12.2689L9.54072 10.7813V9.80232L12.951 11.2517C12.9873 11.2671 13.0263 11.2751 13.0656 11.2752C13.1184 11.2752 13.1702 11.261 13.2156 11.234L16.0291 9.57889L16.9639 9.96107ZM16.9757 8.3412L13.0451 10.649L9.86117 9.29666L13.4478 6.90065L16.9757 8.3412ZM6.86542 12.8774L3.98139 11.6515L4.97213 11.0959L6.86836 11.9014L6.86542 12.8774ZM6.86542 11.2605L3.98139 10.0346L4.97213 9.47305L6.86836 10.2786L6.86542 11.2605ZM6.86542 9.64357L3.98139 8.42057L4.97213 7.86493L6.86836 8.67046L6.86542 9.64357ZM3.98139 6.80363L7.86792 4.6193L10.6873 5.77467L7.13589 8.14422L3.98139 6.80363ZM9.0821 9.11439C9.00107 9.16914 8.9526 9.26061 8.95274 9.3584V13.7682L7.45634 13.1332V8.63812L11.3517 6.0422L12.8011 6.63018L9.0821 9.11439ZM16.9639 13.195L13.0451 15.4998L9.54072 14.0122V13.0362L12.951 14.4709C13.037 14.5074 13.1352 14.5008 13.2156 14.4532L16.0291 12.7981L16.9639 13.195ZM13.0451 13.8829L9.54072 12.3953V11.4193L12.9539 12.8686C13.0399 12.9051 13.1382 12.8986 13.2185 12.851L16.032 11.1958L16.9639 11.578L13.0451 13.8829Z" fill="#4990EF"/>
</svg>
