<svg width="20" height="20" viewBox="0 0 20 20" fill="none" xmlns="http://www.w3.org/2000/svg">
<path d="M15.4281 6.82188L11.6781 3.07187C11.6313 3.025 11.5687 3 11.5 3H5.25C5.1125 3 5 3.1125 5 3.25V17.25C5 17.3875 5.1125 17.5 5.25 17.5H15.25C15.3875 17.5 15.5 17.3875 15.5 17.25V7C15.5 6.93438 15.475 6.86875 15.4281 6.82188ZM11.75 3.85312L14.6469 6.74687H11.75V3.85312ZM15 17H5.5V3.5H11.25V7C11.25 7.1375 11.3625 7.25 11.5 7.25H15V17Z" fill="#2F80ED"/>
<path d="M13.3125 9.125C13.3125 9.2625 13.2 9.375 13.0625 9.375H7.4375C7.3 9.375 7.1875 9.2625 7.1875 9.125C7.1875 8.9875 7.3 8.875 7.4375 8.875H13.0625C13.2 8.875 13.3125 8.9875 13.3125 9.125Z" fill="#2F80ED"/>
<path d="M13.3125 10.625C13.3125 10.7625 13.2 10.875 13.0625 10.875H7.4375C7.3 10.875 7.1875 10.7625 7.1875 10.625C7.1875 10.4875 7.3 10.375 7.4375 10.375H13.0625C13.2 10.375 13.3125 10.4875 13.3125 10.625Z" fill="#2F80ED"/>
<path d="M13.3125 12.125C13.3125 12.2625 13.2 12.375 13.0625 12.375H7.4375C7.3 12.375 7.1875 12.2625 7.1875 12.125C7.1875 11.9875 7.3 11.875 7.4375 11.875H13.0625C13.2 11.875 13.3125 11.9875 13.3125 12.125Z" fill="#2F80ED"/>
<path d="M13.3125 13.625C13.3125 13.7625 13.2 13.875 13.0625 13.875H7.4375C7.3 13.875 7.1875 13.7625 7.1875 13.625C7.1875 13.4875 7.3 13.375 7.4375 13.375H13.0625C13.2 13.375 13.3125 13.4875 13.3125 13.625Z" fill="#2F80ED"/>
<path d="M13.3125 15.125C13.3125 15.2625 13.2 15.375 13.0625 15.375H7.4375C7.3 15.375 7.1875 15.2625 7.1875 15.125C7.1875 14.9875 7.3 14.875 7.4375 14.875H13.0625C13.2 14.875 13.3125 14.9875 13.3125 15.125Z" fill="#2F80ED"/>
</svg>
