<svg width="24" height="24" viewBox="0 0 24 24" fill="none" xmlns="http://www.w3.org/2000/svg">
<rect x="0.5" y="0.5" width="23" height="23" rx="1.5" stroke="#F4F4F4" stroke-opacity="0.9"/>
<mask id="path-2-inside-1" fill="white">
<path fill-rule="evenodd" clip-rule="evenodd" d="M10.1539 8.15837L14.7149 12.2307L10.1539 16.3031V18L16.6154 12.2307L10.1539 6.46151V8.15837Z"/>
</mask>
<path fill-rule="evenodd" clip-rule="evenodd" d="M10.1539 8.15837L14.7149 12.2307L10.1539 16.3031V18L16.6154 12.2307L10.1539 6.46151V8.15837Z" fill="white"/>
<path d="M14.7149 12.2307L15.381 11.4848L16.2164 12.2307L15.381 12.9767L14.7149 12.2307ZM10.1539 8.15837L9.48788 8.90431L9.15389 8.60611V8.15837H10.1539ZM10.1539 16.3031H9.15389V15.8554L9.48788 15.5572L10.1539 16.3031ZM10.1539 18L10.8199 18.7459L9.15389 20.2334V18H10.1539ZM16.6154 12.2307L17.2814 11.4848L18.1169 12.2307L17.2814 12.9767L16.6154 12.2307ZM10.1539 6.46151H9.15389V4.22805L10.8199 5.71557L10.1539 6.46151ZM14.0489 12.9767L9.48788 8.90431L10.8199 7.41243L15.381 11.4848L14.0489 12.9767ZM9.48788 15.5572L14.0489 11.4848L15.381 12.9767L10.8199 17.049L9.48788 15.5572ZM11.1539 16.3031V18H9.15389V16.3031H11.1539ZM9.48788 17.254L15.9494 11.4848L17.2814 12.9767L10.8199 18.7459L9.48788 17.254ZM15.9494 12.9767L9.48788 7.20744L10.8199 5.71557L17.2814 11.4848L15.9494 12.9767ZM11.1539 6.46151V8.15837H9.15389V6.46151H11.1539Z" fill="#2F80ED" mask="url(#path-2-inside-1)"/>
</svg>
