<svg width="24" height="24" viewBox="0 0 24 24" fill="none" xmlns="http://www.w3.org/2000/svg">
<rect x="-0.5" y="0.5" width="23" height="23" rx="1.5" transform="matrix(-1 0 0 1 23 0)" stroke="#F4F4F4" stroke-opacity="0.9"/>
<mask id="path-2-inside-1" fill="white">
<path fill-rule="evenodd" clip-rule="evenodd" d="M13.8461 8.15837L9.28506 12.2307L13.8461 16.3031V18L7.38457 12.2307L13.8461 6.46151V8.15837Z"/>
</mask>
<path fill-rule="evenodd" clip-rule="evenodd" d="M13.8461 8.15837L9.28506 12.2307L13.8461 16.3031V18L7.38457 12.2307L13.8461 6.46151V8.15837Z" fill="white"/>
<path d="M9.28506 12.2307L8.61904 11.4848L7.78359 12.2307L8.61904 12.9767L9.28506 12.2307ZM13.8461 8.15837L14.5121 8.90431L14.8461 8.60611V8.15837H13.8461ZM13.8461 16.3031H14.8461V15.8554L14.5121 15.5572L13.8461 16.3031ZM13.8461 18L13.1801 18.7459L14.8461 20.2334V18H13.8461ZM7.38457 12.2307L6.71855 11.4848L5.8831 12.2307L6.71855 12.9767L7.38457 12.2307ZM13.8461 6.46151H14.8461V4.22805L13.1801 5.71557L13.8461 6.46151ZM9.95107 12.9767L14.5121 8.90431L13.1801 7.41243L8.61904 11.4848L9.95107 12.9767ZM14.5121 15.5572L9.95107 11.4848L8.61904 12.9767L13.1801 17.049L14.5121 15.5572ZM12.8461 16.3031V18H14.8461V16.3031H12.8461ZM14.5121 17.254L8.05059 11.4848L6.71855 12.9767L13.1801 18.7459L14.5121 17.254ZM8.05059 12.9767L14.5121 7.20744L13.1801 5.71557L6.71855 11.4848L8.05059 12.9767ZM12.8461 6.46151V8.15837H14.8461V6.46151H12.8461Z" fill="#2F80ED" mask="url(#path-2-inside-1)"/>
</svg>
